#define ILB_width 48
#define ILB_height 48
static unsigned char ILB_bits[] = {
   0x00, 0x00, 0x00, 0x00, 0x00, 0x00, 0x00, 0x00, 0x00, 0x00, 0x00, 0x00,
   0x00, 0x00, 0x00, 0x00, 0x00, 0x00, 0x00, 0x00, 0x00, 0x00, 0x00, 0x00,
   0x00, 0x00, 0x00, 0x00, 0x00, 0x00, 0x00, 0x00, 0xe0, 0x07, 0x00, 0x00,
   0x00, 0x00, 0xfc, 0x3f, 0x00, 0x00, 0x78, 0x00, 0xff, 0xff, 0x00, 0x1e,
   0xf8, 0x81, 0x1f, 0xf8, 0x01, 0x1f, 0xf0, 0xc3, 0x07, 0xe0, 0xc3, 0x0f,
   0xc0, 0xe3, 0x03, 0xc0, 0xc7, 0x03, 0x00, 0xe3, 0xc1, 0x81, 0xc7, 0x00,
   0x00, 0xf0, 0xf0, 0x01, 0x0f, 0x00, 0x00, 0x70, 0x38, 0x00, 0x0e, 0x00,
   0x00, 0x70, 0x0c, 0x00, 0x0e, 0x00, 0x00, 0x38, 0x0c, 0x00, 0x1c, 0x00,
   0x00, 0x38, 0x06, 0x00, 0x1c, 0x00, 0x00, 0x38, 0x06, 0x00, 0x1c, 0x00,
   0xfe, 0x38, 0x06, 0x00, 0x1c, 0x7f, 0xff, 0x38, 0x00, 0x00, 0x1c, 0xff,
   0x7e, 0x38, 0x00, 0x00, 0x1c, 0x7e, 0x00, 0x70, 0x00, 0x00, 0x0e, 0x00,
   0x00, 0x70, 0x00, 0x00, 0x0e, 0x00, 0x00, 0xf0, 0x00, 0x00, 0x0f, 0x00,
   0x00, 0xe0, 0x01, 0x80, 0x07, 0x00, 0x00, 0xe0, 0x01, 0x80, 0x07, 0x00,
   0x00, 0xc0, 0x03, 0xc0, 0x03, 0x00, 0x80, 0x83, 0x07, 0xe0, 0xc1, 0x01,
   0xe0, 0x03, 0x07, 0xe0, 0xc0, 0x07, 0xf0, 0x01, 0x0f, 0xf0, 0x80, 0x0f,
   0x78, 0x00, 0x0e, 0x70, 0x00, 0x1e, 0x30, 0x00, 0x1c, 0x38, 0x00, 0x0c,
   0x00, 0x00, 0x1c, 0x38, 0x00, 0x00, 0x00, 0x00, 0x00, 0x00, 0x00, 0x00,
   0x00, 0x00, 0x00, 0x00, 0x00, 0x00, 0x00, 0x00, 0x00, 0x00, 0x00, 0x00,
   0x00, 0x00, 0xfc, 0x3f, 0x00, 0x00, 0x00, 0x00, 0xfc, 0x3f, 0x00, 0x00,
   0x00, 0x00, 0xfc, 0x3f, 0x00, 0x00, 0x00, 0x00, 0xfc, 0x3f, 0x00, 0x00,
   0x00, 0x00, 0xf8, 0x1f, 0x00, 0x00, 0x00, 0x00, 0xf0, 0x0f, 0x00, 0x00,
   0x00, 0x00, 0xf0, 0x0f, 0x00, 0x00, 0x00, 0x00, 0x00, 0x00, 0x00, 0x00,
   0x00, 0x00, 0x00, 0x00, 0x00, 0x00, 0x00, 0x00, 0x00, 0x00, 0x00, 0x00,
   0x00, 0x00, 0x00, 0x00, 0x00, 0x00, 0x00, 0x00, 0x00, 0x00, 0x00, 0x00 };
